<?xml version="1.0" standalone="no"?>
<!DOCTYPE svg PUBLIC "-//W3C//DTD SVG 1.0//EN" "http://www.w3.org/TR/2001/REC-SVG-20010904/DTD/svg10.dtd">
<svg xmlns="http://www.w3.org/2000/svg" xmlns:xlink="http://www.w3.org/1999/xlink" id="body_1" width="14" height="14">

<defs>
        <clipPath  id="1">

            <path clip-rule="evenodd" d="M1.761719 1.761719L35.51172 1.761719L35.51172 35.51172L1.761719 35.51172L1.761719 1.761719z" />        </clipPath>
</defs>

<g transform="matrix(0.37333333 0 0 0.37333333 0 0)">
	<g clip-path="url(#1)" >
        <path d="M35.51172 18.636719C 35.51172 19.191406 35.484375 19.742188 35.429688 20.292969C 35.378906 20.839844 35.296875 21.386719 35.1875 21.929688C 35.08203 22.472656 34.945312 23.007812 34.785156 23.535156C 34.625 24.066406 34.4375 24.585938 34.226562 25.09375C 34.015625 25.605469 33.78125 26.105469 33.51953 26.59375C 33.257812 27.078125 32.976562 27.554688 32.66797 28.011719C 32.36328 28.472656 32.03125 28.914062 31.683594 29.34375C 31.332031 29.769531 30.960938 30.179688 30.570312 30.570312C 30.179688 30.960938 29.769531 31.332031 29.34375 31.683594C 28.914062 32.03125 28.472656 32.36328 28.011719 32.66797C 27.554688 32.976562 27.078125 33.257812 26.59375 33.51953C 26.105469 33.78125 25.605469 34.015625 25.09375 34.226562C 24.585938 34.441406 24.066406 34.625 23.535156 34.785156C 23.007812 34.945312 22.472656 35.08203 21.929688 35.1875C 21.386719 35.296875 20.839844 35.378906 20.292969 35.429688C 19.742188 35.484375 19.191406 35.51172 18.636719 35.51172C 18.085938 35.51172 17.535156 35.484375 16.984375 35.429688C 16.433594 35.378906 15.886719 35.296875 15.34375 35.1875C 14.804688 35.08203 14.269531 34.945312 13.738281 34.785156C 13.210938 34.625 12.691406 34.441406 12.179688 34.226562C 11.667969 34.015625 11.171875 33.78125 10.683594 33.51953C 10.195312 33.257812 9.722656 32.976562 9.261719 32.66797C 8.800781 32.36328 8.359375 32.03125 7.933594 31.683594C 7.503906 31.332031 7.097656 30.960938 6.703125 30.570312C 6.3125 30.179688 5.945312 29.769531 5.59375 29.34375C 5.242188 28.914062 4.914062 28.472656 4.605469 28.011719C 4.300781 27.554688 4.015625 27.078125 3.753906 26.59375C 3.496094 26.105469 3.257812 25.605469 3.046875 25.09375C 2.835938 24.585938 2.648438 24.066406 2.488281 23.535156C 2.328125 23.007812 2.195312 22.472656 2.085938 21.929688C 1.980469 21.386719 1.898438 20.839844 1.84375 20.292969C 1.789062 19.742188 1.761719 19.191406 1.761719 18.636719C 1.761719 18.085938 1.789062 17.535156 1.84375 16.984375C 1.898438 16.433594 1.980469 15.886719 2.085938 15.34375C 2.195312 14.804688 2.328125 14.269531 2.488281 13.738281C 2.648438 13.210938 2.835938 12.691406 3.046875 12.179688C 3.257812 11.667969 3.496094 11.171875 3.753906 10.683594C 4.015625 10.195312 4.300781 9.722656 4.605469 9.261719C 4.914062 8.800781 5.242188 8.359375 5.59375 7.933594C 5.945312 7.503906 6.3125 7.097656 6.703125 6.703125C 7.097656 6.3125 7.503906 5.945312 7.933594 5.59375C 8.359375 5.242188 8.800781 4.914062 9.261719 4.605469C 9.722656 4.300781 10.195312 4.015625 10.683594 3.753906C 11.171875 3.496094 11.667969 3.257812 12.179688 3.046875C 12.691406 2.835938 13.210938 2.648438 13.738281 2.488281C 14.269531 2.328125 14.804688 2.195312 15.34375 2.085938C 15.886719 1.980469 16.433594 1.898438 16.984375 1.84375C 17.535156 1.789062 18.085938 1.761719 18.636719 1.761719C 19.191406 1.761719 19.742188 1.789062 20.292969 1.84375C 20.839844 1.898438 21.386719 1.980469 21.929688 2.085938C 22.472656 2.195312 23.007812 2.328125 23.535156 2.488281C 24.066406 2.648438 24.585938 2.835938 25.09375 3.046875C 25.605469 3.257812 26.105469 3.496094 26.59375 3.753906C 27.078125 4.015625 27.554688 4.300781 28.011719 4.605469C 28.472656 4.914062 28.914062 5.242188 29.34375 5.59375C 29.769531 5.945312 30.179688 6.3125 30.570312 6.703125C 30.960938 7.097656 31.332031 7.503906 31.683594 7.933594C 32.03125 8.359375 32.36328 8.800781 32.66797 9.261719C 32.976562 9.722656 33.257812 10.195312 33.51953 10.683594C 33.78125 11.171875 34.015625 11.667969 34.226562 12.179688C 34.4375 12.691406 34.625 13.210938 34.785156 13.738281C 34.945312 14.269531 35.08203 14.804688 35.1875 15.34375C 35.296875 15.886719 35.378906 16.433594 35.429688 16.984375C 35.484375 17.535156 35.51172 18.085938 35.51172 18.636719z" stroke="none" fill="#4965E8" fill-rule="nonzero" />
	</g>
</g>
</svg>