<svg xmlns="http://www.w3.org/2000/svg" xmlns:xlink="http://www.w3.org/1999/xlink" width="12" zoomAndPan="magnify" viewBox="0 0 37.5 37.499999" height="12" preserveAspectRatio="xMidYMid meet" version="1.0"><defs><clipPath id="b6cf455f43"><path d="M 1.761719 1.761719 L 35.511719 1.761719 L 35.511719 35.511719 L 1.761719 35.511719 Z M 1.761719 1.761719 " clip-rule="nonzero"/></clipPath></defs><g clip-path="url(#b6cf455f43)"><path fill="#4965e8" d="M 35.511719 18.636719 C 35.511719 19.191406 35.484375 19.742188 35.429688 20.292969 C 35.378906 20.839844 35.296875 21.386719 35.1875 21.929688 C 35.082031 22.472656 34.945312 23.007812 34.785156 23.535156 C 34.625 24.066406 34.4375 24.585938 34.226562 25.09375 C 34.015625 25.605469 33.78125 26.105469 33.519531 26.59375 C 33.257812 27.078125 32.976562 27.554688 32.667969 28.011719 C 32.363281 28.472656 32.03125 28.914062 31.683594 29.34375 C 31.332031 29.769531 30.960938 30.179688 30.570312 30.570312 C 30.179688 30.960938 29.769531 31.332031 29.34375 31.683594 C 28.914062 32.03125 28.472656 32.363281 28.011719 32.667969 C 27.554688 32.976562 27.078125 33.257812 26.59375 33.519531 C 26.105469 33.78125 25.605469 34.015625 25.09375 34.226562 C 24.585938 34.441406 24.066406 34.625 23.535156 34.785156 C 23.007812 34.945312 22.472656 35.082031 21.929688 35.1875 C 21.386719 35.296875 20.839844 35.378906 20.292969 35.429688 C 19.742188 35.484375 19.191406 35.511719 18.636719 35.511719 C 18.085938 35.511719 17.535156 35.484375 16.984375 35.429688 C 16.433594 35.378906 15.886719 35.296875 15.34375 35.1875 C 14.804688 35.082031 14.269531 34.945312 13.738281 34.785156 C 13.210938 34.625 12.691406 34.441406 12.179688 34.226562 C 11.667969 34.015625 11.171875 33.78125 10.683594 33.519531 C 10.195312 33.257812 9.722656 32.976562 9.261719 32.667969 C 8.800781 32.363281 8.359375 32.03125 7.933594 31.683594 C 7.503906 31.332031 7.097656 30.960938 6.703125 30.570312 C 6.3125 30.179688 5.945312 29.769531 5.59375 29.34375 C 5.242188 28.914062 4.914062 28.472656 4.605469 28.011719 C 4.300781 27.554688 4.015625 27.078125 3.753906 26.59375 C 3.496094 26.105469 3.257812 25.605469 3.046875 25.09375 C 2.835938 24.585938 2.648438 24.066406 2.488281 23.535156 C 2.328125 23.007812 2.195312 22.472656 2.085938 21.929688 C 1.980469 21.386719 1.898438 20.839844 1.84375 20.292969 C 1.789062 19.742188 1.761719 19.191406 1.761719 18.636719 C 1.761719 18.085938 1.789062 17.535156 1.84375 16.984375 C 1.898438 16.433594 1.980469 15.886719 2.085938 15.34375 C 2.195312 14.804688 2.328125 14.269531 2.488281 13.738281 C 2.648438 13.210938 2.835938 12.691406 3.046875 12.179688 C 3.257812 11.667969 3.496094 11.171875 3.753906 10.683594 C 4.015625 10.195312 4.300781 9.722656 4.605469 9.261719 C 4.914062 8.800781 5.242188 8.359375 5.59375 7.933594 C 5.945312 7.503906 6.3125 7.097656 6.703125 6.703125 C 7.097656 6.3125 7.503906 5.945312 7.933594 5.59375 C 8.359375 5.242188 8.800781 4.914062 9.261719 4.605469 C 9.722656 4.300781 10.195312 4.015625 10.683594 3.753906 C 11.171875 3.496094 11.667969 3.257812 12.179688 3.046875 C 12.691406 2.835938 13.210938 2.648438 13.738281 2.488281 C 14.269531 2.328125 14.804688 2.195312 15.34375 2.085938 C 15.886719 1.980469 16.433594 1.898438 16.984375 1.84375 C 17.535156 1.789062 18.085938 1.761719 18.636719 1.761719 C 19.191406 1.761719 19.742188 1.789062 20.292969 1.84375 C 20.839844 1.898438 21.386719 1.980469 21.929688 2.085938 C 22.472656 2.195312 23.007812 2.328125 23.535156 2.488281 C 24.066406 2.648438 24.585938 2.835938 25.09375 3.046875 C 25.605469 3.257812 26.105469 3.496094 26.59375 3.753906 C 27.078125 4.015625 27.554688 4.300781 28.011719 4.605469 C 28.472656 4.914062 28.914062 5.242188 29.34375 5.59375 C 29.769531 5.945312 30.179688 6.3125 30.570312 6.703125 C 30.960938 7.097656 31.332031 7.503906 31.683594 7.933594 C 32.03125 8.359375 32.363281 8.800781 32.667969 9.261719 C 32.976562 9.722656 33.257812 10.195312 33.519531 10.683594 C 33.78125 11.171875 34.015625 11.667969 34.226562 12.179688 C 34.4375 12.691406 34.625 13.210938 34.785156 13.738281 C 34.945312 14.269531 35.082031 14.804688 35.1875 15.34375 C 35.296875 15.886719 35.378906 16.433594 35.429688 16.984375 C 35.484375 17.535156 35.511719 18.085938 35.511719 18.636719 Z M 35.511719 18.636719 " fill-opacity="1" fill-rule="nonzero"/></g></svg>